<?xml version="1.0" encoding="utf-8"?>
<!-- Svg Vector Icons : http://www.onlinewebfonts.com/icon -->
<!DOCTYPE svg PUBLIC "-//W3C//DTD SVG 1.1//EN" "http://www.w3.org/Graphics/SVG/1.1/DTD/svg11.dtd">
<svg version="1.1" xmlns="http://www.w3.org/2000/svg" xmlns:xlink="http://www.w3.org/1999/xlink" x="0px" y="0px" viewBox="0 0 256 256" enable-background="new 0 0 256 256" xml:space="preserve">
<metadata> Svg Vector Icons : http://www.onlinewebfonts.com/icon </metadata>
<g><g><path fill="#000000" d="M197.6,89.5v27.5c9.5,2.5,18.1,7,25.4,13.1V89.5c0-3.3-1.9-5.9-4.2-5.9h-16.9C199.5,83.6,197.6,86.3,197.6,89.5z"/><path fill="#000000" d="M49.7,137.1c1.2,0,2.4-0.5,3.3-1.6l60.2-67.8l45.4,44.3c1,1,2.3,1.5,3.6,1.3c1.3-0.2,2.5-1,3.3-2.3l48.7-77.2c1.6-2.6,1.2-6.3-0.9-8.3c-2.1-2-5.2-1.5-6.8,1.1l-45.7,72.4L116,55.2c-1.9-1.8-4.6-1.7-6.4,0.3l-63.3,71.3c-2,2.2-2.1,6-0.3,8.4C47,136.4,48.3,137.1,49.7,137.1z"/><path fill="#000000" d="M121.4,95.5h-16.9c-2.3,0-4.2,2.6-4.2,5.9v106.9c0,3.3,1.9,5.9,4.2,5.9h16.9c1.5,0,2.9-1.2,3.6-2.9c-5.3-9.4-8.3-20.2-8.3-31.7c0-11.9,3.3-23.1,8.9-32.8v-45.5C125.6,98.1,123.8,95.5,121.4,95.5z"/><path fill="#000000" d="M181.4,244.3"/><path fill="#000000" d="M55.8,143c-2.3,0-4.2,2.7-4.2,5.9v59.4c0,3.3,1.9,5.9,4.2,5.9h16.9c2.3,0,4.2-2.6,4.2-5.9v-59.4c0-3.3-1.9-5.9-4.2-5.9H55.8z"/><path fill="#000000" d="M112.9,224.8H30.2V10.7H10v233.6h20.2h126.2C138.2,244.3,124.7,236.8,112.9,224.8z"/><path fill="#000000" d="M191.8,155c-19.9,0-36.1,16.3-36.1,36.1c0,19.9,16.3,36.1,36.1,36.1s36.1-16.3,36.1-36.1C227.9,171.3,211.7,155,191.8,155L191.8,155L191.8,155z M191.8,209.2c-9.9,0-18.1-8.1-18.1-18.1c0-9.9,8.1-18.1,18.1-18.1s18.1,8.1,18.1,18.1C209.9,201.1,201.8,209.2,191.8,209.2L191.8,209.2L191.8,209.2z"/><path fill="#000000" d="M182.8,136.9h18.1v36.1h-18.1V136.9L182.8,136.9L182.8,136.9z"/><path fill="#000000" d="M147.5,159.2l12.8-12.8l25.5,25.5L173,184.7L147.5,159.2L147.5,159.2L147.5,159.2z"/><path fill="#000000" d="M137.6,182.1h36.1v18.1h-36.1V182.1L137.6,182.1L137.6,182.1z"/><path fill="#000000" d="M159.5,235.8l-12.8-12.8l25.6-25.6l12.8,12.8L159.5,235.8L159.5,235.8L159.5,235.8z"/><path fill="#000000" d="M182.8,209.2h18.1v36.1h-18.1V209.2L182.8,209.2L182.8,209.2z"/><path fill="#000000" d="M236.9,223l-12.8,12.8l-25.5-25.5l12.8-12.8L236.9,223L236.9,223L236.9,223z"/><path fill="#000000" d="M209.9,182.1H246v18.1h-36.1V182.1L209.9,182.1L209.9,182.1z"/><path fill="#000000" d="M223.4,146.4l12.8,12.8l-25.6,25.5L197.8,172L223.4,146.4L223.4,146.4L223.4,146.4z"/></g></g>
</svg>